<?xml version="1.0" encoding="utf-8"?>
<!-- Generator: Adobe Illustrator 16.0.0, SVG Export Plug-In . SVG Version: 6.00 Build 0)  -->
<!DOCTYPE svg PUBLIC "-//W3C//DTD SVG 1.1//EN" "http://www.w3.org/Graphics/SVG/1.1/DTD/svg11.dtd">
<svg version="1.1" id="Layer_1" xmlns="http://www.w3.org/2000/svg" xmlns:xlink="http://www.w3.org/1999/xlink" x="0px" y="0px"
	 width="80px" height="80px" viewBox="0 0 80 80" enable-background="new 0 0 80 80" xml:space="preserve">
<g>
	<path fill="#D8D3CA" d="M35.042,66.407c0,5.051-1.685,12.231-3.762,12.231c-2.079,0-3.763-7.181-3.763-12.231
		c0-5.053,2.224-6.063,3.763-6.063C32.817,60.344,35.042,61.354,35.042,66.407"/>
	<path fill="#1A1A1A" d="M26.607,69.194c0.174,1.861,0.509,3.702,1,5.507c0.292,1.143,0.732,2.244,1.307,3.275
		c0.529,0.885,1.241,1.713,2.366,1.713s1.835-0.828,2.364-1.713c0.576-1.032,1.015-2.134,1.307-3.278
		c0.493-1.804,0.827-3.646,1-5.507h-2.113c-0.167,1.668-0.472,3.32-0.909,4.939c-0.248,0.962-0.612,1.89-1.085,2.765
		c0.056,0.312-0.152,0.607-0.463,0.664c-0.311,0.055-0.608-0.153-0.664-0.464c-0.012-0.065-0.012-0.134,0-0.2
		c-0.474-0.875-0.839-1.803-1.086-2.765c-0.438-1.619-0.742-3.271-0.909-4.939L26.607,69.194z"/>
	<path fill="#1A1A1A" d="M31.279,59.295c-1.256-0.001-2.449,0.551-3.26,1.51c-0.965,1.14-1.553,2.923-1.553,5.604
		c0.005,1.13,0.073,2.259,0.204,3.382h2.118c-0.14-1.121-0.214-2.252-0.221-3.382c0-2.371,0.524-3.618,1.056-4.245
		c0.782-0.917,2.158-1.025,3.072-0.242c0.087,0.073,0.167,0.153,0.241,0.242c0.531,0.627,1.056,1.872,1.056,4.245
		c-0.006,1.13-0.08,2.261-0.222,3.382h2.118c0.131-1.123,0.2-2.252,0.204-3.382c0-2.681-0.587-4.464-1.552-5.604
		C33.729,59.846,32.536,59.294,31.279,59.295"/>
	<path fill="#D8D3CA" d="M54.063,66.407c0,5.051-1.685,12.231-3.763,12.231s-3.764-7.181-3.764-12.231
		c0-5.053,2.223-6.063,3.764-6.063C51.84,60.344,54.063,61.354,54.063,66.407"/>
	<path fill="#1A1A1A" d="M45.626,69.194c0.174,1.861,0.511,3.702,1.002,5.507c0.292,1.143,0.731,2.244,1.307,3.275
		c0.529,0.885,1.24,1.713,2.366,1.713c1.123,0,1.835-0.828,2.364-1.713c0.574-1.032,1.015-2.134,1.307-3.278
		c0.49-1.804,0.827-3.646,1.001-5.507h-2.115c-0.165,1.668-0.471,3.32-0.908,4.939c-0.246,0.962-0.611,1.89-1.086,2.765
		c0.056,0.312-0.152,0.607-0.463,0.664c-0.311,0.055-0.608-0.153-0.664-0.464c-0.012-0.065-0.012-0.134,0-0.2
		c-0.474-0.875-0.838-1.803-1.086-2.765c-0.438-1.619-0.741-3.271-0.909-4.939L45.626,69.194z"/>
	<path fill="#1A1A1A" d="M50.299,59.295c-1.255-0.001-2.448,0.551-3.259,1.51c-0.967,1.14-1.554,2.923-1.554,5.604
		c0.006,1.13,0.074,2.259,0.204,3.382h2.119c-0.142-1.121-0.215-2.252-0.223-3.382c0-2.371,0.524-3.618,1.057-4.245
		c0.782-0.917,2.157-1.025,3.072-0.242c0.087,0.073,0.167,0.153,0.241,0.242c0.531,0.627,1.056,1.872,1.056,4.245
		c-0.007,1.13-0.081,2.261-0.221,3.382h2.117c0.132-1.123,0.2-2.252,0.204-3.382c0-2.681-0.589-4.464-1.554-5.604
		C52.749,59.846,51.555,59.292,50.299,59.295"/>
	<path fill="#D8D3CA" d="M11.602,45.084c-4.007-3.076-8.679-8.783-7.414-10.432c1.265-1.649,7.988,1.386,11.996,4.462
		c4.007,3.076,3.454,5.454,2.518,6.674C17.765,47.008,15.61,48.159,11.602,45.084"/>
	<path fill="#1A1A1A" d="M14.525,36.695c-1.582-0.996-3.248-1.852-4.978-2.56c-1.085-0.464-2.226-0.787-3.394-0.958
		c-1.025-0.118-2.114-0.057-2.798,0.836c-0.685,0.894-0.461,1.959-0.082,2.919c0.468,1.083,1.074,2.103,1.804,3.03
		c1.131,1.487,2.39,2.875,3.76,4.147l1.288-1.678c-1.223-1.148-2.349-2.396-3.366-3.729c-0.614-0.782-1.128-1.637-1.534-2.545
		c-0.12-0.27-0.183-0.56-0.187-0.854c0.286-0.073,0.583-0.087,0.874-0.041c0.982,0.156,1.941,0.433,2.856,0.822
		c1.55,0.638,3.047,1.402,4.472,2.286L14.525,36.695z"/>
	<path fill="#1A1A1A" d="M19.534,46.428c0.766-0.995,1.055-2.276,0.79-3.505c-0.316-1.459-1.374-3.012-3.501-4.643
		c-0.9-0.685-1.838-1.318-2.81-1.898l-1.29,1.68c0.976,0.572,1.918,1.202,2.82,1.885c1.881,1.443,2.55,2.618,2.727,3.422
		c0.25,1.179-0.503,2.336-1.68,2.584c-0.111,0.024-0.224,0.04-0.337,0.046c-0.822,0.04-2.131-0.304-4.012-1.748
		c-0.893-0.695-1.745-1.441-2.55-2.237l-1.29,1.681c0.812,0.788,1.667,1.529,2.562,2.222c2.125,1.632,3.898,2.25,5.391,2.181
		C17.608,48.035,18.771,47.424,19.534,46.428"/>
	<path fill="#D8D3CA" d="M69.977,37.752c4.007,3.076,8.679,8.782,7.413,10.432c-1.263,1.648-7.986-1.387-11.995-4.462
		c-4.008-3.074-3.453-5.455-2.519-6.674C63.813,35.826,65.969,34.677,69.977,37.752"/>
	<path fill="#1A1A1A" d="M67.052,46.142c1.582,0.994,3.249,1.853,4.979,2.56c1.085,0.464,2.227,0.786,3.394,0.957
		c1.024,0.118,2.113,0.058,2.797-0.832c0.686-0.89,0.462-1.961,0.083-2.919c-0.468-1.084-1.074-2.104-1.804-3.031
		c-1.132-1.487-2.391-2.875-3.762-4.146l-1.286,1.677c1.223,1.147,2.349,2.396,3.366,3.727c0.612,0.783,1.128,1.639,1.533,2.545
		c0.28,0.147,0.389,0.493,0.243,0.772c-0.146,0.281-0.491,0.39-0.772,0.242c-0.058-0.029-0.112-0.071-0.158-0.119
		c-0.98-0.157-1.939-0.434-2.854-0.821c-1.552-0.639-3.047-1.403-4.472-2.287L67.052,46.142z"/>
	<path fill="#1A1A1A" d="M62.044,36.41c-0.766,0.995-1.055,2.277-0.79,3.504c0.316,1.458,1.374,3.011,3.502,4.645
		c0.899,0.684,1.839,1.316,2.811,1.896l1.288-1.68c-0.977-0.57-1.918-1.2-2.82-1.885c-1.881-1.443-2.55-2.619-2.725-3.423
		c-0.251-1.177,0.501-2.334,1.679-2.584c0.111-0.023,0.224-0.039,0.338-0.044c0.822-0.04,2.131,0.303,4.012,1.747
		c0.892,0.695,1.744,1.443,2.55,2.238l1.288-1.683c-0.813-0.788-1.668-1.53-2.562-2.223c-2.127-1.631-3.898-2.25-5.391-2.178
		C63.971,34.803,62.807,35.413,62.044,36.41"/>
	<path fill="#1A1A1A" d="M40.257,13.691v3.361h19.632c2.882-0.027,5.239,2.287,5.267,5.167c0.001,0.032,0.001,0.064,0,0.097v38.204
		c0.026,2.882-2.288,5.239-5.169,5.267c-0.032,0.001-0.064,0.001-0.098,0H40.257v3.36h19.632c4.761-0.01,8.617-3.866,8.627-8.627
		V22.317c-0.01-4.76-3.866-8.616-8.627-8.625H40.257z"/>
	<path fill="#1A1A1A" d="M21.687,13.691c-4.76,0.009-8.617,3.866-8.626,8.625v38.204c0.01,4.761,3.866,8.617,8.626,8.627h19.632
		v-3.36H21.687c-2.882,0.026-5.24-2.289-5.266-5.171c0-0.032,0-0.063,0-0.096V22.317c-0.025-2.881,2.288-5.239,5.17-5.264
		c0.032-0.001,0.064-0.001,0.096,0h19.632v-3.361H21.687z"/>
	<path fill="#FFFFFF" d="M18.66,15.371h44.256c2.166,0,3.921,1.755,3.921,3.92v44.257c0,2.163-1.755,3.919-3.921,3.919H18.66
		c-2.164,0-3.919-1.756-3.919-3.919V19.291C14.741,17.126,16.496,15.371,18.66,15.371"/>
	<path fill="#D8D3CA" d="M14.74,56.074v4.445c-0.008,3.828,3.088,6.938,6.917,6.946h0.03h38.202
		c3.828,0.009,6.938-3.089,6.946-6.916v-0.03v-4.445c0.009,3.828-3.087,6.938-6.915,6.946h-0.031H21.687
		c-3.828,0.009-6.938-3.087-6.946-6.915V56.074z"/>
	<path fill="#1A1A1A" d="M40.257,14.951v0.84h19.632c3.592-0.013,6.514,2.888,6.527,6.478v0.048v38.204
		c0.012,3.593-2.892,6.517-6.484,6.527c-0.014,0-0.028,0-0.043,0H40.257v0.841h19.632c4.064,0.003,7.362-3.289,7.367-7.354v-0.015
		V22.317c0.004-4.064-3.288-7.362-7.353-7.366h-0.015H40.257z"/>
	<path fill="#1A1A1A" d="M21.687,14.951c-4.064-0.003-7.362,3.289-7.366,7.353v0.013v38.204c-0.004,4.065,3.288,7.362,7.353,7.367
		h0.013h19.629v-0.841H21.685c-3.591,0.013-6.513-2.888-6.526-6.479V60.52V22.317c-0.013-3.59,2.888-6.513,6.478-6.526
		c0.016,0,0.032,0,0.048,0h19.631V14.95L21.687,14.951z"/>
	<path fill="#1A1A1A" d="M27.34,34.705c0-2.497,2.024-4.521,4.521-4.521s4.521,2.024,4.521,4.521h-1.68
		c0-1.568-1.272-2.84-2.841-2.84c-1.568,0-2.84,1.272-2.84,2.84H27.34z"/>
	<path fill="#1A1A1A" d="M45.194,34.705c0-2.497,2.023-4.521,4.521-4.521s4.521,2.024,4.521,4.521h-1.68
		c0-1.568-1.271-2.84-2.841-2.84s-2.84,1.271-2.84,2.84H45.194z"/>
	<path fill="#1A1A1A" d="M40.297,67.848c-0.004,0.097-0.008,0.195-0.008,0.294c0.054,2.886,2.427,5.186,5.313,5.151l1.504,0.006
		c1.787-0.003,3.238-1.451,3.241-3.239c-0.021-0.7-0.274-1.372-0.722-1.91c0.074-0.097,0.143-0.198,0.208-0.299h-2.266l-0.393,0.298
		l0.878,0.67c0.686,0.524,0.815,1.505,0.291,2.188c-0.295,0.385-0.749,0.61-1.234,0.613l-1.503-0.006
		c-1.958,0.049-3.586-1.499-3.635-3.457c-0.001-0.005-0.001-0.009-0.001-0.013c0-0.099,0.006-0.195,0.013-0.294L40.297,67.848z"/>
	<path fill="#1A1A1A" d="M31.745,67.848c0.065,0.104,0.134,0.202,0.209,0.298c-0.446,0.54-0.701,1.211-0.722,1.912
		c0.005,1.787,1.455,3.235,3.243,3.238l1.501-0.006c2.887,0.036,5.26-2.266,5.314-5.151c0-0.099-0.005-0.197-0.009-0.294h-1.686
		c0.01,0.097,0.014,0.195,0.014,0.294c-0.042,1.959-1.665,3.513-3.624,3.47h-0.014l-1.503,0.006
		c-0.861-0.003-1.558-0.704-1.556-1.567c0.001-0.484,0.228-0.94,0.614-1.234l0.878-0.668l-0.392-0.298L31.745,67.848z"/>
	<path fill="#008000" d="M39.529,66.758h2.517c0.064-0.011,0.123,0.034,0.132,0.097c0.002,0.011,0.002,0.022,0,0.034v2.52
		c0.01,0.063-0.035,0.122-0.101,0.131c-0.01,0-0.02,0-0.031-0.001h-2.517c-0.063,0.01-0.122-0.034-0.131-0.099
		c-0.001-0.012-0.001-0.021,0-0.031v-2.517c-0.011-0.064,0.033-0.124,0.095-0.134C39.506,66.755,39.517,66.755,39.529,66.758
		 M39.529,65.076c-0.997,0.008-1.803,0.814-1.811,1.813v2.52c0.008,0.996,0.813,1.802,1.811,1.81h2.517
		c0.998-0.007,1.805-0.813,1.813-1.81v-2.517c-0.009-0.998-0.815-1.805-1.813-1.813L39.529,65.076z"/>
	<path fill="#1A1A1A" d="M45.604,62.995c-2.888-0.039-5.262,2.26-5.316,5.146c0,0.104,0.005,0.203,0.01,0.303h1.686
		c-0.009-0.1-0.015-0.2-0.015-0.303c0.04-1.954,1.656-3.505,3.611-3.465h0.023h1.503c0.862,0.001,1.561,0.701,1.558,1.564
		c0,0.484-0.227,0.94-0.611,1.236l-0.879,0.668l0.392,0.299h2.267c-0.064-0.104-0.133-0.202-0.208-0.299
		c0.445-0.539,0.699-1.21,0.72-1.91c-0.006-1.787-1.451-3.233-3.238-3.239L45.604,62.995z"/>
	<path fill="#1A1A1A" d="M34.472,62.995c-1.787,0.007-3.234,1.453-3.241,3.24c0.021,0.699,0.275,1.371,0.721,1.91
		c-0.073,0.097-0.141,0.196-0.208,0.299h2.268l0.392-0.299l-0.879-0.668c-0.685-0.525-0.814-1.504-0.291-2.189
		c0.295-0.385,0.752-0.611,1.236-0.611h1.501c1.954-0.055,3.582,1.485,3.636,3.438c0,0.009,0,0.018,0,0.026
		c0,0.104-0.005,0.203-0.014,0.303h1.684c0.006-0.101,0.01-0.2,0.01-0.303c-0.054-2.887-2.43-5.187-5.315-5.146H34.472z"/>
	<path fill="#1A1A1A" d="M38.741,65.076h4.095c0.564,0,1.023,0.458,1.023,1.022v4.097c0,0.563-0.459,1.02-1.023,1.02h-4.095
		c-0.564,0-1.022-0.456-1.022-1.02v-4.097C37.719,65.534,38.176,65.076,38.741,65.076"/>
	<path fill="#FF4C34" d="M45.602,63.836h1.504c1.325,0.001,2.4,1.077,2.4,2.402c-0.002,0.75-0.351,1.454-0.947,1.908
		c1.055,0.805,1.259,2.313,0.454,3.365c-0.454,0.596-1.159,0.945-1.907,0.946l-1.504-0.006c-2.378,0.089-4.379-1.771-4.465-4.149
		c-0.087-2.381,1.771-4.38,4.151-4.467C45.393,63.833,45.498,63.833,45.602,63.836"/>
	<path fill="#E01D35" d="M41.217,67.287c0.465,2.041,2.292,3.48,4.385,3.456l1.504,0.005c0.998,0.004,1.892-0.611,2.243-1.545
		c0.471,1.239-0.151,2.625-1.39,3.097c-0.272,0.104-0.563,0.157-0.854,0.157l-1.504-0.005c-2.424,0.043-4.428-1.886-4.476-4.311
		C41.126,67.854,41.157,67.568,41.217,67.287"/>
	<rect x="42.702" y="67.832" fill="#1A1A1A" width="3.005" height="0.63"/>
	<path fill="#1A1A1A" d="M40.822,67.848c-0.006,0.097-0.011,0.195-0.011,0.294c0.052,2.597,2.191,4.664,4.788,4.626l1.504,0.004
		c1.498,0.001,2.714-1.211,2.717-2.709v-0.006c-0.015-0.729-0.325-1.418-0.861-1.911c0.096-0.093,0.186-0.194,0.27-0.298h-0.803
		c-0.02,0.016-0.038,0.033-0.059,0.047l-0.329,0.251l0.329,0.251c0.917,0.696,1.095,2.007,0.398,2.923
		c-0.396,0.519-1.01,0.823-1.661,0.823l-1.503-0.004c-2.252,0.046-4.116-1.743-4.163-3.996c0-0.1,0.004-0.196,0.013-0.294
		L40.822,67.848z"/>
	<path fill="#1A1A1A" d="M45.602,63.521c-2.597-0.042-4.738,2.024-4.788,4.621c0,0.104,0.005,0.203,0.011,0.303h0.631
		c-0.006-0.1-0.012-0.2-0.012-0.303c0.045-2.249,1.904-4.036,4.153-3.992l0.006,0.001h1.503c1.153-0.001,2.088,0.931,2.088,2.084
		c0,0.652-0.305,1.269-0.823,1.663l-0.331,0.251l0.331,0.249c0.02,0.016,0.04,0.033,0.06,0.05h0.801
		c-0.082-0.105-0.174-0.205-0.271-0.299c0.536-0.492,0.847-1.183,0.86-1.91c0-1.499-1.214-2.715-2.713-2.716L45.602,63.521z"/>
	<path fill="#FF4C34" d="M35.974,63.836h-1.502c-1.326,0-2.401,1.076-2.401,2.402c0.001,0.749,0.35,1.454,0.946,1.908
		c-1.055,0.803-1.259,2.311-0.455,3.365c0.454,0.596,1.16,0.946,1.91,0.946l1.502-0.006c2.379,0.089,4.379-1.771,4.466-4.149
		c0.086-2.381-1.772-4.38-4.151-4.467C36.183,63.833,36.078,63.833,35.974,63.836"/>
	<path fill="#1A1A1A" d="M34.472,63.521c-1.5,0-2.715,1.216-2.715,2.715c0.014,0.729,0.325,1.419,0.861,1.91
		c-0.096,0.094-0.187,0.193-0.271,0.299h0.802c0.021-0.017,0.04-0.031,0.06-0.047l0.33-0.252l-0.33-0.251
		c-0.916-0.698-1.092-2.007-0.394-2.922c0.394-0.519,1.007-0.82,1.658-0.82h1.502c2.249-0.05,4.112,1.734,4.161,3.983v0.006
		c0,0.104-0.006,0.203-0.012,0.303h0.631c0.006-0.1,0.011-0.2,0.011-0.303c-0.051-2.596-2.192-4.662-4.789-4.619L34.472,63.521z"/>
	<path fill="#E01D35" d="M40.359,67.287c-0.466,2.041-2.293,3.482-4.387,3.456l-1.503,0.005c-0.997,0.004-1.892-0.611-2.244-1.545
		c-0.47,1.241,0.154,2.628,1.396,3.098c0.271,0.104,0.558,0.156,0.848,0.156l1.503-0.005c2.425,0.043,4.427-1.886,4.476-4.311
		C40.447,67.854,40.418,67.568,40.359,67.287"/>
	<rect x="35.869" y="67.832" fill="#1A1A1A" width="3.005" height="0.63"/>
	<path fill="#1A1A1A" d="M32.347,67.848c0.084,0.105,0.174,0.205,0.271,0.298c-0.536,0.493-0.847,1.183-0.861,1.911
		c-0.001,1.498,1.212,2.714,2.71,2.715h0.006l1.503-0.004c2.597,0.038,4.736-2.029,4.788-4.626c0-0.099-0.005-0.195-0.011-0.294
		H40.12c0.008,0.097,0.012,0.195,0.012,0.294c-0.046,2.253-1.91,4.041-4.163,3.996l-1.503,0.005
		c-1.152,0.002-2.086-0.932-2.087-2.085c0-0.652,0.304-1.267,0.824-1.661l0.33-0.251l-0.33-0.251l-0.059-0.047H32.347z"/>
	<path fill="#FF4C34" d="M39.107,65.917h3.364c0.303,0,0.548,0.245,0.548,0.548v3.362c0,0.304-0.245,0.549-0.548,0.549h-3.364
		c-0.303,0-0.548-0.245-0.548-0.549v-3.362C38.559,66.162,38.804,65.917,39.107,65.917"/>
	<path fill="#E01D35" d="M38.558,68.109v1.296c-0.001,0.534,0.433,0.969,0.968,0.971h0.004h2.516
		c0.536,0.001,0.971-0.432,0.973-0.968v-0.003v-1.296c0.001,0.535-0.433,0.971-0.967,0.973h-0.006H39.53
		c-0.535,0.001-0.971-0.432-0.972-0.968V68.109z"/>
	<path fill="#1A1A1A" d="M38.244,67.848v1.558c0.002,0.71,0.578,1.284,1.287,1.285h2.516c0.71-0.001,1.286-0.575,1.289-1.285v-1.558
		h-0.631v1.558c0.003,0.357-0.281,0.651-0.641,0.655c-0.006,0-0.012,0-0.018,0H39.53c-0.358,0.006-0.651-0.282-0.657-0.638v-0.018
		v-1.558H38.244z"/>
	<path fill="#1A1A1A" d="M39.53,65.602c-0.71,0.001-1.284,0.577-1.287,1.287v1.556h0.63v-1.556c-0.005-0.359,0.282-0.653,0.64-0.657
		h0.017h2.516c0.359-0.004,0.653,0.282,0.658,0.64c0,0.006,0,0.012,0,0.018v1.556h0.631v-1.556c-0.003-0.71-0.579-1.286-1.289-1.287
		H39.53z"/>
	<path fill="#1A1A1A" d="M37.598,3.761v3.327c3.111,0.194,6.119,0.238,9.299,0.472c4.073,0.3,6.501,1.483,7.936,2.929
		c1.348,1.389,2.066,3.268,1.992,5.201c0,3.427-1.827,5.724-5.014,7.279s-7.715,2.104-12.365,1.39
		c-0.617-0.094-1.232-0.211-1.849-0.349v3.435c0.447,0.088,0.894,0.169,1.338,0.238c5.215,0.8,10.344,0.26,14.349-1.691
		c4.004-1.951,6.9-5.575,6.9-10.3c0.059-2.816-1.009-5.54-2.966-7.567C55.086,5.974,51.774,4.55,47.146,4.21
		C43.729,3.957,40.675,3.938,37.598,3.761"/>
	<path fill="#1A1A1A" d="M25.301,1.731l1.098,2.96l0.269,0.729c-2.964-0.37-5.888-1.006-8.737-1.903l-2.58-0.906l0.357,2.711
		c1.734,13.17,12.282,20.41,22.487,22.236V24.14c-8.151-1.633-16.138-6.998-18.563-16.626c3.092,0.944,6.304,1.44,9.537,1.473
		l2.401-0.015l-0.992-2.673c2.521,0.426,5.063,0.703,7.617,0.828V3.796c-3.31-0.124-6.6-0.565-9.826-1.32L25.301,1.731z"/>
	<path fill="#595959" d="M27.974,4.105l1.187,3.197C23.731,7.332,17.374,5.1,17.374,5.1c3.339,25.36,41.133,26.893,41.133,10.59
		c0-4.59-2.783-9.165-11.484-9.805C40.479,5.403,35.024,5.813,27.974,4.105"/>
	<path fill="#797979" d="M27.974,4.105l1.187,3.197C23.731,7.332,17.374,5.1,17.374,5.1c11.553,15.054,36.715,14.749,39.331,4.98
		c-1.695-2.192-4.729-3.832-9.684-4.196C40.479,5.402,35.024,5.813,27.974,4.105"/>
	<path fill="#3E3E3E" d="M17.373,5.1c3.339,25.36,41.132,26.893,41.132,10.59c0.002-0.75-0.078-1.5-0.237-2.232
		C52.222,28.051,21.801,21.623,17.373,5.1"/>
	<path fill="#1A1A1A" d="M37.598,5.026v0.821c3.099,0.186,6.123,0.215,9.392,0.456c4.281,0.315,7.041,1.59,8.737,3.298
		c1.576,1.628,2.426,3.824,2.357,6.089c0,3.914-2.228,6.71-5.721,8.413c-3.491,1.703-8.246,2.249-13.108,1.502
		c-0.552-0.085-1.104-0.187-1.658-0.306v0.859c0.51,0.104,1.021,0.199,1.529,0.275c5.002,0.77,9.908,0.226,13.604-1.578
		c3.697-1.801,6.194-4.928,6.194-9.167c0.063-2.485-0.875-4.893-2.603-6.68c-1.871-1.885-4.853-3.219-9.273-3.545
		C43.722,5.22,40.687,5.203,37.598,5.026"/>
	<path fill="#1A1A1A" d="M27.305,3.511l0.275,0.741l0.957,2.58c-5.175-0.13-11.025-2.128-11.025-2.128l-0.645-0.226l0.09,0.677
		C18.6,17.637,28.479,24.465,38.194,26.275v-0.857c-9.211-1.764-18.455-8.122-20.291-19.728c0.958,0.325,6.191,2.06,11.258,2.03
		l0.601-0.003l-1.137-3.066c3.149,0.684,6.351,1.095,9.57,1.23V5.058c-3.41-0.126-6.8-0.582-10.122-1.36L27.305,3.511z"/>
	<path d="M32.585,42.564h2.301v-2.302h-2.301V42.564z M30.235,37.899h7.004v7.025h-7.004V37.899z"/>
	<path d="M48.989,40.263h-2.303v2.305h2.305L48.989,40.263z M44.32,37.907h7.015v7.014H44.32V37.907z"/>
	<path d="M34.889,54.367h-2.304v2.306h2.304V54.367z M37.249,59.026h-7.014V52.01h7.014V59.026z"/>
	<polygon points="46.681,49.624 46.681,47.319 51.343,47.319 51.343,51.976 49.007,51.976 49.007,49.618 46.677,49.618 	"/>
	<path d="M46.675,54.364c1.043-0.007,2.087-0.015,3.131-0.02c0.504-0.003,1.008,0,1.531,0v4.683h-2.333v-2.358h-2.329l0.005,0.007
		v-2.318L46.675,54.364z"/>
	<path d="M46.675,49.618c-0.004,1.408-0.009,2.816-0.013,4.226c0,0.173,0.009,0.347,0.013,0.521l0.005-0.007h-2.375l0.008,0.007
		v-4.746l-0.008,0.009h2.376L46.675,49.618z"/>
	<path d="M39.636,47.318c-0.007-0.961-0.015-1.923-0.021-2.885c-0.003-0.603,0-1.205,0-1.828h2.315
		c0.013,0.059,0.022,0.118,0.025,0.18c0.003,1.456,0.003,2.914,0,4.371c-0.003,0.056-0.009,0.109-0.021,0.163l0.012-0.011h-2.319
		L39.636,47.318z"/>
	<path d="M39.637,49.615c-1.025,0.008-2.051,0.015-3.076,0.021c-0.539,0.002-1.078,0-1.635,0v-2.313
		c0.059-0.013,0.119-0.023,0.179-0.027h4.341c0.064,0.004,0.127,0.01,0.19,0.021l-0.011-0.012v2.32L39.637,49.615z"/>
	<path d="M41.94,54.355h-2.289c-0.016-0.068-0.028-0.137-0.034-0.205c0-1.456,0-2.914,0-4.372c0.003-0.055,0.011-0.108,0.021-0.163
		l-0.012,0.012h2.321l-0.011-0.01c0.008,0.871,0.018,1.738,0.021,2.608c0,0.712-0.013,1.425-0.021,2.139L41.94,54.355z"/>
	<polygon points="46.675,56.667 46.675,59.018 44.313,59.018 44.313,56.664 44.304,56.676 46.68,56.676 	"/>
	<rect x="39.633" y="37.907" width="2.305" height="2.324"/>
	<rect x="30.234" y="47.313" width="2.321" height="2.301"/>
	<polygon points="41.935,47.318 44.307,47.318 44.307,49.624 44.313,49.618 41.935,49.618 41.946,49.627 41.946,47.307 	"/>
	<path d="M41.921,56.65c0.012-0.426,0.025-0.853,0.031-1.28c0.003-0.339-0.006-0.677-0.01-1.015l-0.008,0.009h2.378l-0.006-0.006
		v2.317l0.007-0.01l-2.397-0.019L41.921,56.65z"/>
	<path d="M41.916,56.646c0.014,0.264,0.033,0.527,0.037,0.791c0.006,0.521,0,1.041,0,1.584H39.63v-2.336
		c0.173,0,0.343,0.003,0.513,0c0.593-0.009,1.185-0.021,1.778-0.031L41.916,56.646z"/>
</g>
</svg>
